<svg xmlns="http://www.w3.org/2000/svg" viewBox="0 0 64 64">
  <defs>
    <filter id="g" x="-40%" y="-40%" width="180%" height="180%">
      <feGaussianBlur stdDeviation="1.4"/>
    </filter>
  </defs>
  <rect width="64" height="64" rx="14" fill="#0d1117"/>
  <g stroke="#b6f145" stroke-width="3" stroke-linecap="round" fill="none" opacity="0.5" filter="url(#g)">
    <path d="M20 24 33 31 M20 24 21 35 M21 35 33 31 M21 35 32 40 M33 21 33 31 M33 21 44 31 M33 31 44 31 M32 40 44 31 M33 31 32 40"/>
  </g>
  <path d="M20 24 33 31 M20 24 21 35 M21 35 33 31 M21 35 32 40 M33 21 33 31 M33 21 44 31 M33 31 44 31 M32 40 44 31 M33 31 32 40" stroke="#b6f145" stroke-width="2.6" stroke-linecap="round" fill="none"/>
  <g fill="#b6f145">
    <circle cx="20" cy="24" r="4.2"/>
    <circle cx="33" cy="21" r="4.2"/>
    <circle cx="21" cy="35" r="4.2"/>
    <circle cx="33" cy="31" r="4.2"/>
    <circle cx="32" cy="40" r="4.2"/>
    <circle cx="44" cy="31" r="4.2"/>
  </g>
</svg>
